<svg xmlns="http://www.w3.org/2000/svg" width="81" height="81" viewBox="0 0 81 81"><g><g><path fill="#fff" d="M79.138 76.845l-2.37 2.369a6.091 6.091 0 0 1-8.613 0L53.252 64.31a34.635 34.635 0 0 1-18.45 5.291C15.58 69.602 0 54.022 0 34.801 0 15.581 15.58-.001 34.8-.001c19.22 0 34.801 15.582 34.801 34.802a34.635 34.635 0 0 1-5.35 18.545L79.139 68.23a6.091 6.091 0 0 1 0 8.614zM34.8 9.631c-13.9 0-25.17 11.27-25.17 25.17 0 13.901 11.27 25.17 25.17 25.17 13.901 0 25.17-11.269 25.17-25.17 0-13.9-11.269-25.17-25.17-25.17z"/></g></g></svg>