<svg xmlns="http://www.w3.org/2000/svg" width="71" height="82" viewBox="0 0 71 82"><g><g><path fill="#fff" d="M35.075 82.011c-19.368 0-35.07-15.7-35.07-35.07 0-16.009 10.74-29.486 25.4-33.687v11.214c-8.702 3.749-14.797 12.396-14.797 22.474 0 13.511 10.954 24.467 24.467 24.467 13.512 0 24.468-10.956 24.468-24.467 0-9.986-5.99-18.558-14.564-22.36V13.313C59.52 17.59 70.145 31.016 70.145 46.942c0 19.37-15.7 35.07-35.07 35.07zm-.116-28.428a5.126 5.126 0 0 1-5.127-5.126V5.115a5.127 5.127 0 0 1 10.253 0v43.342a5.125 5.125 0 0 1-5.126 5.126z"/></g></g></svg>