<svg xmlns="http://www.w3.org/2000/svg" width="56" height="74" viewBox="0 0 56 74"><g><g><path fill="#fff" d="M53.4 72.034c-1.307 1.307-2.88 1.96-4.73 1.96H6.702c-1.85 0-3.43-.653-4.738-1.96-1.307-1.307-1.953-2.88-1.953-4.73V36.134c0-1.851.646-3.423 1.953-4.73 1.307-1.308 2.887-1.961 4.738-1.961h.288v-6.979c0-2.933.521-5.718 1.57-8.364 1.051-2.645 2.523-4.955 4.405-6.931a20.975 20.975 0 0 1 6.59-4.684C22.076 1.334 24.77.759 27.64.759c2.926 0 5.657.575 8.169 1.727a20.922 20.922 0 0 1 6.598 4.684c1.882 1.976 3.346 4.286 4.396 6.931 1.058 2.646 1.579 5.431 1.579 8.364v6.979h.289c1.85 0 3.423.653 4.73 1.96 1.307 1.308 1.96 2.88 1.96 4.731v31.168c0 1.851-.653 3.424-1.96 4.73zM40.546 22.465c0-1.977-.35-3.828-1.058-5.547-.7-1.72-1.641-3.205-2.816-4.443a12.947 12.947 0 0 0-4.108-2.917 11.928 11.928 0 0 0-4.925-1.051c-1.72 0-3.36.351-4.924 1.05a12.256 12.256 0 0 0-4.062 2.918c-1.152 1.238-2.078 2.723-2.778 4.443-.7 1.72-1.05 3.57-1.05 5.547v6.979H40.64zm-6.217 22.182c0-1.728-.622-3.205-1.867-4.45-1.236-1.245-2.754-1.86-4.535-1.86-1.727 0-3.206.615-4.45 1.86-1.245 1.245-1.86 2.722-1.86 4.45 0 2.038.761 3.664 2.295 4.87l-1.914 15.008h11.95l-1.913-15.008c1.532-1.206 2.294-2.832 2.294-4.87z"/></g></g></svg>