<svg aria-hidden="true" focusable="false" data-prefix="fas" data-icon="medal" class="svg-inline--fa fa-medal fa-w-16" role="img" xmlns="http://www.w3.org/2000/svg" viewBox="0 0 512 512"><path fill="Gold" d="M0 0L0 0A0 0 0 0 0 0 0H0C0 0-0 0 0 0l0 0c0-0 0-0 0-0zM0 0H0c-0 0-0 0-0 0l-0 0c0 0 0 0 0 0L0 0C0 0 0 0 0 0zM186 10c-97.2 0-176 78.8-176 176s78.8 176 176 176 176-78.8 176-176-78.8-176-176-176zm92.52 157.26l-37.93 36.96 8.97 52.22c1.6 9.36-8.26 16.51-16.65 12.09L186 243.88l-46.9 24.65c-8.4 4.45-18.25-2.74-16.65-12.09l8.97-52.22-37.93-36.96c-6.82-6.64-3.05-18.23 6.35-19.59l52.43-7.64 23.43-47.52c2.11-4.28 6.19-6.39 10.28-6.39 4.11 0 8.22 2.14 10.33 6.39l23.43 47.52 52.43 7.64c9.4 1.36 13.17 12.95 6.35 19.59z"></path></svg>